<svg width="23" height="18" viewBox="0 0 23 18" fill="none" xmlns="http://www.w3.org/2000/svg">
<path d="M15 0.9375C15 0.429688 15.4297 0 15.9375 0H21.5625C22.0703 0 22.5 0.429688 22.5 0.9375C22.5 1.44531 22.0703 1.875 21.5625 1.875H16.875V6.5625C16.875 7.07031 16.4453 7.5 15.9375 7.5H11.875V11.5625C11.875 12.0703 11.4453 12.5 10.9375 12.5H6.875V16.5625C6.875 17.0703 6.44531 17.5 5.9375 17.5H0.9375C0.429688 17.5 0 17.0703 0 16.5625C0 16.0547 0.429688 15.625 0.9375 15.625H5V11.5625C5 11.0547 5.42969 10.625 5.9375 10.625H10V6.5625C10 6.05469 10.4297 5.625 10.9375 5.625H15V0.9375Z" fill="#626262"/>
</svg>
