<svg width="24" height="24" viewBox="6 9 28 23" fill="none" xmlns="http://www.w3.org/2000/svg">
<path d="M20 13.625C17.4609 13.625 15.3516 14.7969 13.75 16.2812C12.2656 17.6875 11.2109 19.3281 10.6641 20.5C11.2109 21.6719 12.2656 23.3516 13.75 24.7188C15.3516 26.2031 17.4609 27.375 20 27.375C22.5391 27.375 24.6484 26.2031 26.25 24.7188C27.7344 23.3516 28.7891 21.6719 29.3359 20.5C28.7891 19.3281 27.7344 17.6875 26.25 16.2812C24.6484 14.7969 22.5391 13.625 20 13.625ZM12.4609 14.9141C14.3359 13.1953 16.8359 11.75 20 11.75C23.1641 11.75 25.7031 13.1953 27.5391 14.9141C29.3359 16.5938 30.5859 18.625 31.1719 20.0312C31.2891 20.3438 31.2891 20.6562 31.1719 20.9688C30.5859 22.375 29.3359 24.4062 27.5391 26.0859C25.7031 27.8047 23.1641 29.25 20 29.25C16.8359 29.25 14.3359 27.8047 12.4609 26.0859C10.6641 24.4062 9.41406 22.375 8.82812 20.9688C8.71094 20.6562 8.71094 20.3438 8.82812 20.0312C9.41406 18.625 10.6641 16.5938 12.4609 14.9141ZM20 23.625C21.7188 23.625 23.125 22.2188 23.125 20.5C23.125 19.3281 22.5 18.3516 21.5625 17.8047C21.5234 20.1094 19.6094 22.0234 17.3047 22.0625C17.8516 23 18.8281 23.625 20 23.625ZM16.875 20.1875C16.9922 20.1875 17.0703 20.1875 17.1875 20.1875C18.5547 20.1875 19.6875 19.0547 19.6875 17.6875C19.6875 17.5703 19.6875 17.4922 19.6875 17.375C18.2031 17.5312 17.0312 18.7031 16.9141 20.1875H16.875ZM18.6719 15.6953C19.1016 15.5781 19.5312 15.5 20 15.5C20.3516 15.5 20.6641 15.5391 21.0156 15.6172C21.0156 15.6172 21.0156 15.6172 21.0547 15.6172C23.2812 16.0859 25 18.1172 25 20.5C25 23.2734 22.7734 25.5 20 25.5C17.5781 25.5 15.5859 23.8203 15.1172 21.5547C15.0391 21.2031 15 20.8516 15 20.5C15 20.0703 15.0391 19.6406 15.1562 19.25C15.1562 19.2109 15.1562 19.2109 15.1562 19.1719C15.625 17.4922 16.9922 16.1641 18.6719 15.6953Z" fill="#626262"/>
</svg>
