<svg width="22" height="22" viewBox="0 0 22 22" fill="none" xmlns="http://www.w3.org/2000/svg">
<path d="M22 11C22 16.6289 17.7891 21.2695 12.332 21.9141V14.3516H15.2969L15.9414 11H12.332V9.79688C12.332 8.03516 13.0195 7.34766 14.8242 7.34766C15.3828 7.34766 15.8555 7.34766 16.1133 7.39062V4.33984C15.5977 4.21094 14.3945 4.08203 13.707 4.08203C10.0547 4.08203 8.33594 5.80078 8.33594 9.53906V11H6.05859V14.3516H8.33594V21.6992C3.56641 20.4961 0 16.1562 0 11C0 4.94141 4.94141 0 11 0C17.0586 0 22 4.94141 22 11Z" fill="black"/>
</svg>
