<svg width="20" height="20" viewBox="0 0 20 20" fill="none" xmlns="http://www.w3.org/2000/svg">
<path d="M8.75 0C12.9688 0 16.4844 2.96875 17.3047 6.91406L19.1406 8.75C19.6875 9.29688 20 10.0391 20 10.8203C20 12.3047 18.9062 13.5156 17.5 13.7109V14.6875C17.5 16.6016 15.9766 18.125 14.0625 18.125H13.125V19.0625C13.125 19.5703 12.6953 20 12.1875 20C11.6797 20 11.25 19.5703 11.25 19.0625V17.1875C11.25 16.6797 11.6797 16.25 12.1875 16.25H14.0625C14.9219 16.25 15.625 15.5469 15.625 14.6875V12.8125C15.625 12.3047 16.0547 11.875 16.5625 11.875H17.0703C17.6562 11.875 18.125 11.4062 18.125 10.8203C18.125 10.5469 18.0078 10.2734 17.8125 10.0781L15.7812 8.04688C15.6641 7.89062 15.5469 7.73438 15.5078 7.53906C14.9609 4.33594 12.1484 1.875 8.75 1.875C4.96094 1.875 1.875 4.96094 1.875 8.75C1.875 10.5469 2.53906 12.1484 3.67188 13.3594C4.0625 13.8281 4.375 14.4531 4.375 15.1562V19.0625C4.375 19.5703 3.94531 20 3.4375 20C2.92969 20 2.5 19.5703 2.5 19.0625V15.1562C2.5 15 2.42188 14.8047 2.26562 14.6094C0.859375 13.0859 0 11.0156 0 8.75C0 3.90625 3.90625 0 8.75 0ZM12.5 9.375C11.7969 9.375 11.25 8.82812 11.25 8.125C11.25 7.42188 11.7969 6.875 12.5 6.875C13.2031 6.875 13.75 7.42188 13.75 8.125C13.75 8.82812 13.2031 9.375 12.5 9.375Z" fill="#626262"/>
</svg>
