<svg width="20" height="20" viewBox="0 0 20 20" fill="none" xmlns="http://www.w3.org/2000/svg">
<path d="M9.625 4.72656C12.375 4.72656 14.5664 6.96094 14.5664 9.66797C14.5664 12.418 12.332 14.6094 9.625 14.6094C6.875 14.6094 4.68359 12.375 4.68359 9.66797C4.68359 6.91797 6.91797 4.72656 9.625 4.72656ZM9.625 6.44531C7.82031 6.48828 6.40234 7.90625 6.40234 9.66797C6.44531 11.4727 7.86328 12.8906 9.625 12.8906C11.4297 12.8477 12.8477 11.4297 12.8477 9.66797C12.8047 7.86328 11.3867 6.44531 9.625 6.44531ZM13.6211 4.51172C13.6211 5.15625 14.1367 5.67188 14.7812 5.67188C15.4258 5.67188 15.9414 5.15625 15.9414 4.51172C15.9414 3.86719 15.4258 3.39453 14.7812 3.39453C14.1367 3.39453 13.6211 3.86719 13.6211 4.51172ZM19.207 5.71484C19.293 7.30469 19.293 12.0312 19.207 13.6211C19.1211 15.168 18.7773 16.543 17.6602 17.6602C16.5 18.8203 15.168 19.1641 13.6211 19.207C12.0312 19.3359 7.26172 19.3359 5.67188 19.207C4.125 19.1641 2.75 18.7773 1.63281 17.6602C0.515625 16.543 0.128906 15.168 0.0859375 13.6211C0 12.0312 0 7.26172 0.0859375 5.67188C0.171875 4.16797 0.515625 2.79297 1.63281 1.67578C2.75 0.515625 4.125 0.171875 5.67188 0.0859375C7.26172 0 12.0312 0 13.6211 0.0859375C15.168 0.171875 16.5 0.515625 17.6602 1.67578C18.7773 2.79297 19.1211 4.16797 19.207 5.71484ZM17.1445 15.3398C17.6602 14.0938 17.5312 11.0859 17.5312 9.66797C17.5312 8.25 17.6602 5.24219 17.1445 3.99609C16.8008 3.13672 16.1562 2.49219 15.2969 2.14844C14.0508 1.67578 11.043 1.76172 9.625 1.76172C8.25 1.76172 5.24219 1.67578 3.95312 2.14844C3.13672 2.49219 2.44922 3.13672 2.14844 3.99609C1.63281 5.24219 1.76172 8.25 1.76172 9.66797C1.76172 11.0859 1.63281 14.0938 2.14844 15.3398C2.49219 16.1992 3.13672 16.8438 3.95312 17.1875C5.24219 17.6602 8.25 17.5742 9.625 17.5742C11.043 17.5742 14.0508 17.6602 15.2969 17.1875C16.1562 16.8438 16.8008 16.1992 17.1445 15.3398Z" fill="black"/>
</svg>
