<svg width="20" height="20" viewBox="0 0 20 20" fill="none" xmlns="http://www.w3.org/2000/svg">
<path d="M17.875 0C18.6484 0 19.25 0.644531 19.25 1.375V17.875C19.25 18.6484 18.6484 19.25 17.875 19.25H1.375C0.601562 19.25 0 18.6484 0 17.875V1.375C0 0.644531 0.601562 0 1.375 0H17.875ZM5.80078 16.5H5.84375V7.30469H2.96484V16.5H5.80078ZM4.38281 2.75C3.48047 2.75 2.75 3.48047 2.75 4.42578C2.75 5.32812 3.48047 6.05859 4.38281 6.05859C5.28516 6.05859 6.05859 5.32812 6.05859 4.42578C6.05859 3.48047 5.28516 2.75 4.38281 2.75ZM16.5 16.5V11.4727C16.5 8.98047 15.9844 7.08984 13.1055 7.08984C11.6875 7.08984 10.7852 7.86328 10.3984 8.55078H10.3555V7.30469H7.60547V16.5H10.4844V11.9453C10.4844 10.7422 10.6992 9.58203 12.1602 9.58203C13.6211 9.58203 13.6641 10.957 13.6641 12.0312V16.5H16.5Z" fill="black"/>
</svg>
