<svg width="22" height="22" viewBox="0 0 22 22" fill="none" xmlns="http://www.w3.org/2000/svg">
<path d="M21.3125 10.6562C21.3125 16.543 16.543 21.3125 10.6562 21.3125C9.53906 21.3125 8.50781 21.1406 7.51953 20.8398C7.94922 20.1094 8.59375 18.9492 8.80859 18.0469C8.9375 17.5312 9.49609 15.5117 9.49609 15.5117C9.83984 16.1562 10.8711 16.7148 11.9453 16.7148C15.125 16.7148 17.4453 13.793 17.4453 10.0977C17.4453 6.57422 14.5664 3.95312 10.8711 3.95312C6.27344 3.95312 3.86719 7.04688 3.86719 10.3984C3.86719 11.9453 4.68359 13.9219 6.01562 14.5234C6.23047 14.6094 6.31641 14.5664 6.35938 14.3945C6.40234 14.2227 6.57422 13.5352 6.66016 13.1914C6.70312 13.0625 6.66016 12.9766 6.57422 12.8906C6.14453 12.332 5.80078 11.3438 5.80078 10.4414C5.80078 8.07812 7.5625 5.80078 10.6133 5.80078C13.2344 5.80078 15.082 7.60547 15.082 10.1406C15.082 13.0195 13.6211 15.0391 11.7305 15.0391C10.6562 15.0391 9.88281 14.1797 10.1406 13.1055C10.4414 11.8594 11 10.4844 11 9.58203C11 8.76562 10.5703 8.07812 9.66797 8.07812C8.59375 8.07812 7.73438 9.15234 7.73438 10.6562C7.73438 11.6016 8.07812 12.2461 8.07812 12.2461C8.07812 12.2461 7.00391 16.6719 6.83203 17.5312C6.61719 18.4336 6.70312 19.7227 6.78906 20.582C2.79297 19.0352 0 15.168 0 10.6562C0 4.76953 4.76953 0 10.6562 0C16.543 0 21.3125 4.76953 21.3125 10.6562Z" fill="black"/>
</svg>
