<svg width="20" height="22" viewBox="0 0 20 22" fill="none" xmlns="http://www.w3.org/2000/svg">
<path d="M4.25781 5.23438C2.89062 6.60156 2.10938 8.35938 1.91406 10.1172C1.875 10.6641 1.40625 11.0156 0.898438 10.9766C0.390625 10.9375 0 10.4688 0.078125 9.96094C0.273438 7.73438 1.25 5.58594 2.92969 3.90625C6.83594 0 13.1641 0 17.0703 3.90625L18.125 4.96094V1.91406C18.125 1.40625 18.5547 0.976562 19.0625 0.976562C19.6094 0.976562 20 1.40625 20 1.91406V7.22656C20 7.73438 19.6094 8.16406 19.0625 8.16406H13.75C13.2422 8.16406 12.8125 7.73438 12.8125 7.22656C12.8125 6.71875 13.2422 6.28906 13.75 6.28906H16.7969L15.7422 5.23438C12.5781 2.07031 7.42188 2.07031 4.25781 5.23438ZM19.9609 12.0312C19.7266 14.2188 18.75 16.3672 17.0703 18.0469C13.1641 21.9531 6.83594 21.9531 2.92969 18.0469L1.875 16.9922V20.0391C1.875 20.5469 1.44531 20.9766 0.9375 20.9766C0.429688 20.9766 0 20.5469 0 20.0391V14.7266C0 14.2188 0.429688 13.7891 0.9375 13.7891H6.25C6.75781 13.7891 7.1875 14.2188 7.1875 14.7266C7.1875 15.2344 6.75781 15.6641 6.25 15.6641H3.20312L4.25781 16.7188C7.42188 19.8828 12.5781 19.8828 15.7422 16.7188C17.1094 15.3516 17.8906 13.5938 18.0859 11.8359C18.125 11.2891 18.5938 10.9375 19.1016 10.9766C19.6484 11.0547 20 11.4844 19.9609 12.0312Z" fill="#626262"/>
</svg>
