<svg width="17" height="22" viewBox="0 0 17 22" fill="none" xmlns="http://www.w3.org/2000/svg">
<path d="M10.1562 0C11.3281 0 12.3438 0.976562 12.3438 2.1875C12.3438 3.39844 11.3281 4.375 10.1562 4.375C8.94531 4.375 7.96875 3.39844 7.96875 2.1875C7.96875 0.976562 8.94531 0 10.1562 0ZM4.92188 7.5C4.6875 7.5 4.45312 7.65625 4.33594 7.89062L3.20312 10.6641C3.00781 11.1328 2.46094 11.3672 1.95312 11.1719C1.48438 10.9766 1.25 10.4297 1.44531 9.96094L2.61719 7.14844C3.00781 6.25 3.90625 5.625 4.92188 5.625H8.59375C9.88281 5.625 11.0938 6.36719 11.6797 7.53906L12.8125 9.84375C12.8906 9.92188 12.9688 10 13.0859 10H15.4688C15.9766 10 16.4062 10.4297 16.4062 10.9375C16.4062 11.4453 15.9766 11.875 15.4688 11.875H13.0859C12.2656 11.875 11.5234 11.4062 11.1328 10.6641L11.0156 10.4297L10 13.6328L12.1875 14.2188C13.0859 14.4531 13.5938 15.4688 13.2031 16.3672L10.9766 21.3281C10.7812 21.7969 10.2344 21.9922 9.76562 21.7969C9.29688 21.6016 9.0625 21.0156 9.29688 20.5469L11.3281 15.9375L6.44531 14.6875C5.27344 14.375 4.57031 13.125 4.92188 11.9531L6.09375 7.85156L6.21094 7.5H4.92188ZM8.16406 7.5C8.16406 7.57812 7.65625 9.21875 6.71875 12.4609C6.67969 12.6172 6.75781 12.8125 6.95312 12.8516L8.20312 13.1641L9.80469 8.08594C9.49219 7.69531 9.0625 7.5 8.59375 7.5H8.16406ZM4.72656 15.8984C5.07812 16.1719 5.50781 16.3672 5.97656 16.4844L6.44531 16.6016L6.25 17.1875C6.05469 17.7344 5.70312 18.2812 5.23438 18.6719L1.67969 21.6406C1.28906 21.9531 0.703125 21.9141 0.351562 21.5234C0 21.0938 0.078125 20.5078 0.46875 20.1953L4.02344 17.2266C4.21875 17.0312 4.375 16.7969 4.49219 16.5625L4.72656 15.8984Z" fill="#626262"/>
</svg>
