<svg width="18" height="20" viewBox="0 0 18 20" fill="none" xmlns="http://www.w3.org/2000/svg">
<path d="M8.75 0C12.1875 0 15 2.8125 15 6.25V10H15.625C16.6797 10 17.5 10.8594 17.5 11.875V13.75C17.5 14.5703 16.9922 15.2734 16.25 15.5078V19.0625C16.25 19.5703 15.8203 20 15.3125 20C14.8047 20 14.375 19.5703 14.375 19.0625V15.625H3.125V19.0625C3.125 19.5703 2.69531 20 2.1875 20C1.67969 20 1.25 19.5703 1.25 19.0625V15.5078C0.507812 15.2734 0 14.5703 0 13.75V11.875C0 10.8594 0.859375 10 1.875 10H2.5V6.25C2.5 2.8125 5.3125 0 8.75 0ZM13.125 10V6.25C13.125 4.92188 12.5391 3.71094 11.5625 2.89062V10H13.125ZM9.6875 1.99219C9.375 1.91406 9.0625 1.875 8.75 1.875C8.4375 1.875 8.125 1.91406 7.8125 1.99219V10H9.6875V1.99219ZM5.9375 2.89062C5 3.71094 4.375 4.92188 4.375 6.25V10H5.9375V2.89062ZM1.875 13.75H15.625V11.875H1.875V13.75Z" fill="#626262"/>
</svg>
