<svg width="15" height="23" viewBox="0 0 15 23" fill="none" xmlns="http://www.w3.org/2000/svg">
<path d="M7.30469 0C8.51562 0 9.49219 0.976562 9.49219 2.1875C9.49219 3.39844 8.51562 4.375 7.30469 4.375C6.09375 4.375 5.11719 3.39844 5.11719 2.1875C5.11719 0.976562 6.09375 0 7.30469 0ZM6.05469 13.75H8.55469V7.77344C8.16406 7.61719 7.73438 7.5 7.30469 7.5C6.875 7.5 6.44531 7.61719 6.05469 7.77344V13.75ZM6.05469 15.625V21.5625C6.05469 22.0703 5.625 22.5 5.11719 22.5C4.60938 22.5 4.17969 22.0703 4.17969 21.5625V9.76562L1.83594 13.0469C1.52344 13.4766 0.9375 13.5547 0.507812 13.2812C0.078125 12.9688 0 12.3828 0.3125 11.9531L3.39844 7.65625C4.29688 6.36719 5.74219 5.625 7.30469 5.625C8.86719 5.625 10.3125 6.36719 11.2109 7.65625L14.3359 11.9531C14.6094 12.3828 14.5312 12.9688 14.1016 13.2812C13.6719 13.5547 13.0859 13.4766 12.8125 13.0469L10.4297 9.76562V21.5625C10.4297 22.0703 10 22.5 9.49219 22.5C8.98438 22.5 8.55469 22.0703 8.55469 21.5625V15.625H6.05469Z" fill="#626262"/>
</svg>
