<svg width="22" height="21" viewBox="0 0 22 21" fill="none" xmlns="http://www.w3.org/2000/svg">
<path d="M10.8203 0C11.1719 0 11.4844 0.195312 11.6797 0.507812L14.5312 6.13281L20.7812 7.14844C21.1328 7.1875 21.4062 7.42188 21.5234 7.77344C21.6406 8.125 21.5625 8.47656 21.2891 8.71094L16.8359 13.2031L17.8125 19.4531C17.8516 19.8047 17.7344 20.1562 17.4219 20.3516C17.1484 20.5469 16.7578 20.5859 16.4453 20.4297L10.8203 17.5781L5.19531 20.4297C4.88281 20.5859 4.49219 20.5469 4.21875 20.3516C3.94531 20.1562 3.78906 19.8047 3.82812 19.4531L4.80469 13.2031L0.351562 8.71094C0.117188 8.47656 0 8.125 0.117188 7.77344C0.234375 7.42188 0.507812 7.1875 0.859375 7.14844L7.10938 6.13281L10 0.507812C10.1562 0.195312 10.4688 0 10.8203 0ZM10.8203 3.00781L8.55469 7.42188C8.4375 7.69531 8.16406 7.89062 7.89062 7.92969L2.96875 8.71094L6.48438 12.2266C6.67969 12.4219 6.79688 12.7344 6.75781 13.0078L5.97656 17.9297L10.3906 15.6641C10.6641 15.5469 10.9766 15.5469 11.25 15.6641L15.6641 17.9297L14.9219 13.0078C14.8438 12.7344 14.9609 12.4219 15.1562 12.2266L18.6719 8.71094L13.7891 7.92969C13.4766 7.89062 13.2031 7.69531 13.0859 7.42188L10.8203 3.00781Z" fill="#626262"/>
</svg>
