<svg width="20" height="17" viewBox="0 0 20 17" fill="none" xmlns="http://www.w3.org/2000/svg">
<path d="M0.9375 0H2.8125C3.32031 0 3.75 0.429688 3.75 0.9375V2.8125C3.75 3.32031 3.32031 3.75 2.8125 3.75H0.9375C0.429688 3.75 0 3.32031 0 2.8125V0.9375C0 0.429688 0.429688 0 0.9375 0ZM6.5625 0.9375H18.4375C18.9453 0.9375 19.375 1.36719 19.375 1.875C19.375 2.38281 18.9453 2.8125 18.4375 2.8125H6.5625C6.05469 2.8125 5.625 2.38281 5.625 1.875C5.625 1.36719 6.05469 0.9375 6.5625 0.9375ZM6.5625 7.1875H18.4375C18.9453 7.1875 19.375 7.61719 19.375 8.125C19.375 8.63281 18.9453 9.0625 18.4375 9.0625H6.5625C6.05469 9.0625 5.625 8.63281 5.625 8.125C5.625 7.61719 6.05469 7.1875 6.5625 7.1875ZM6.5625 13.4375H18.4375C18.9453 13.4375 19.375 13.8672 19.375 14.375C19.375 14.8828 18.9453 15.3125 18.4375 15.3125H6.5625C6.05469 15.3125 5.625 14.8828 5.625 14.375C5.625 13.8672 6.05469 13.4375 6.5625 13.4375ZM0 7.1875C0 6.67969 0.429688 6.25 0.9375 6.25H2.8125C3.32031 6.25 3.75 6.67969 3.75 7.1875V9.0625C3.75 9.57031 3.32031 10 2.8125 10H0.9375C0.429688 10 0 9.57031 0 9.0625V7.1875ZM0.9375 12.5H2.8125C3.32031 12.5 3.75 12.9297 3.75 13.4375V15.3125C3.75 15.8203 3.32031 16.25 2.8125 16.25H0.9375C0.429688 16.25 0 15.8203 0 15.3125V13.4375C0 12.9297 0.429688 12.5 0.9375 12.5Z" fill="#626262"/>
</svg>
