<svg width="18" height="21" viewBox="0 0 18 21" fill="none" xmlns="http://www.w3.org/2000/svg">
<path d="M13.5352 9.45312C13.6211 9.49609 13.707 9.53906 13.793 9.58203C15.0391 10.1836 15.9414 11.0859 16.457 12.2031C17.1016 13.75 17.1875 16.3281 15.125 18.3477C13.5781 19.8945 11.6875 20.625 9.02344 20.625H8.98047C5.97266 20.625 3.65234 19.5938 2.10547 17.6172C0.730469 15.8555 0 13.4062 0 10.3125C0 7.21875 0.730469 4.76953 2.10547 3.00781C3.65234 1.03125 5.97266 0.0429688 8.98047 0H9.02344C12.0312 0.0429688 14.3945 1.03125 15.9844 3.00781C16.7578 3.99609 17.3594 5.15625 17.7461 6.53125L15.9844 6.96094C15.6836 5.88672 15.2109 4.94141 14.6094 4.16797C13.3633 2.62109 11.4727 1.84766 9.02344 1.80469C6.57422 1.84766 4.68359 2.62109 3.48047 4.16797C2.36328 5.58594 1.80469 7.64844 1.76172 10.3125C1.80469 12.9766 2.36328 15.0391 3.48047 16.457C4.68359 18.0039 6.57422 18.7773 9.02344 18.8203C11.2148 18.7773 12.6758 18.2617 13.8789 17.0586C15.2969 15.6836 15.2539 13.9648 14.8242 12.9336C14.5664 12.332 14.0938 11.8164 13.4492 11.4297C13.2773 12.5898 12.9336 13.4922 12.375 14.2227C11.6445 15.168 10.6133 15.6406 9.23828 15.7266C8.25 15.7695 7.26172 15.5547 6.48828 15.0391C5.62891 14.4375 5.07031 13.5352 5.02734 12.5039C4.94141 10.4414 6.57422 8.9375 9.10938 8.76562C10.0117 8.72266 10.8711 8.76562 11.6875 8.89453C11.5586 8.25 11.3438 7.77734 11.043 7.39062C10.6133 6.875 9.92578 6.61719 9.06641 6.61719H9.02344C8.29297 6.61719 7.34766 6.83203 6.74609 7.77734L5.24219 6.74609C6.10156 5.5 7.43359 4.8125 9.02344 4.8125H9.06641C11.7734 4.8125 13.3633 6.48828 13.5352 9.45312H13.4922H13.5352ZM6.83203 12.418C6.875 13.4922 8.03516 13.9648 9.15234 13.9219C10.2695 13.8359 11.5156 13.4062 11.7305 10.7852C11.1289 10.6562 10.5273 10.5703 9.83984 10.5703C9.625 10.5703 9.45312 10.5703 9.23828 10.6133C7.39062 10.6992 6.78906 11.6016 6.83203 12.375V12.418Z" fill="black"/>
</svg>
