<svg width="20" height="23" viewBox="0 0 20 23" fill="none" xmlns="http://www.w3.org/2000/svg">
<path d="M19.3789 9.02344C17.4883 9.02344 15.6406 8.42188 14.0938 7.34766V14.9961C14.0938 16.457 13.6641 17.832 12.8477 18.9922C12.0312 20.1523 10.8711 21.0547 9.53906 21.5703C8.20703 22.043 6.74609 22.1289 5.37109 21.7852C3.99609 21.4414 2.75 20.668 1.84766 19.5938C0.902344 18.5195 0.300781 17.1875 0.171875 15.7695C0 14.3516 0.257812 12.9336 0.945312 11.6875C1.63281 10.4414 2.66406 9.41016 3.95312 8.76562C5.19922 8.12109 6.66016 7.90625 8.03516 8.07812V11.9453C7.39062 11.7734 6.70312 11.7734 6.05859 11.9883C5.45703 12.2031 4.89844 12.5898 4.46875 13.1484C4.08203 13.707 3.86719 14.3516 3.91016 15.0391C3.91016 15.7266 4.125 16.3711 4.51172 16.9297C4.89844 17.4453 5.45703 17.875 6.10156 18.0469C6.74609 18.2617 7.47656 18.2617 8.07812 18.0469C8.72266 17.832 9.28125 17.4453 9.71094 16.8867C10.0977 16.3711 10.3125 15.6836 10.3125 14.9961V0H14.0938C14.0938 0.300781 14.0938 0.644531 14.1797 0.945312C14.3086 1.67578 14.5664 2.32031 14.9531 2.92188C15.3828 3.52344 15.8984 4.03906 16.5 4.42578C17.3594 4.98438 18.3477 5.28516 19.3789 5.28516V9.02344Z" fill="black"/>
</svg>
