<svg width="20" height="20" viewBox="0 0 20 20" fill="none" xmlns="http://www.w3.org/2000/svg">
<path d="M10.2734 0C11.25 0 12.1094 0.585938 12.5 1.40625C12.7734 1.28906 13.0859 1.25 13.3984 1.25C14.7656 1.25 15.8984 2.38281 15.8984 3.75V3.82812C16.0938 3.78906 16.2891 3.75 16.5234 3.75C17.8906 3.75 19.0234 4.88281 19.0234 6.25V13.125C19.0234 13.2031 18.9844 13.2422 18.9844 13.3203C18.75 16.875 15.8984 19.7266 12.3047 20C12.2656 20 12.1875 20 12.1484 20H11.4844C8.82812 20 6.28906 18.9453 4.41406 17.0703L0.976562 13.6328C0 12.6562 0 11.0938 0.976562 10.1172C1.95312 9.14062 3.55469 9.14062 4.53125 10.1172L4.64844 10.2344V3.75C4.64844 2.38281 5.74219 1.25 7.14844 1.25C7.42188 1.25 7.73438 1.28906 8.00781 1.40625C8.39844 0.585938 9.25781 0 10.2734 0ZM9.64844 3.75V9.0625C9.64844 9.57031 9.21875 10 8.71094 10C8.16406 10 7.77344 9.57031 7.77344 9.0625V3.75C7.77344 3.39844 7.46094 3.125 7.14844 3.125C6.79688 3.125 6.52344 3.39844 6.52344 3.75V12.4609C6.52344 12.8516 6.28906 13.2031 5.9375 13.3594C5.58594 13.4766 5.15625 13.3984 4.92188 13.125L3.20312 11.4453C2.96875 11.2109 2.53906 11.2109 2.30469 11.4453C2.07031 11.6797 2.07031 12.0703 2.30469 12.3047L5.74219 15.7422C7.26562 17.2656 9.33594 18.125 11.4844 18.125H11.9922C12.0312 18.125 12.0703 18.125 12.0703 18.125C14.8047 17.9688 16.9922 15.8203 17.1094 13.0859C17.1094 13.0469 17.1094 13.0469 17.1484 13.0078V6.25C17.1484 5.89844 16.8359 5.625 16.5234 5.625C16.1719 5.625 15.8984 5.89844 15.8984 6.25V9.0625C15.8984 9.57031 15.4688 10 14.9609 10C14.4141 10 14.0234 9.57031 14.0234 9.0625V3.75C14.0234 3.39844 13.7109 3.125 13.3984 3.125C13.0469 3.125 12.7734 3.39844 12.7734 3.75V9.0625C12.7734 9.57031 12.3438 10 11.8359 10C11.2891 10 10.8984 9.57031 10.8984 9.0625V2.5C10.8984 2.14844 10.5859 1.875 10.2734 1.875C9.92188 1.875 9.64844 2.14844 9.64844 2.5V3.75Z" fill="#626262"/>
</svg>
