<svg width="14" height="23" viewBox="0 0 14 23" fill="none" xmlns="http://www.w3.org/2000/svg">
<path d="M6.32812 4.375C5.11719 4.375 4.14062 3.39844 4.14062 2.1875C4.14062 0.976562 5.11719 0 6.32812 0C7.53906 0 8.51562 0.976562 8.51562 2.1875C8.51562 3.39844 7.53906 4.375 6.32812 4.375ZM5.78125 7.5C5.54688 7.5 5.3125 7.53906 5.07812 7.57812V11.7969C5.07812 12.3047 5.35156 12.8125 5.78125 13.0859L6.64062 13.6719V7.61719C6.36719 7.53906 6.09375 7.5 5.78125 7.5ZM2.42188 9.60938C2.10938 9.92188 1.95312 10.3125 1.95312 10.7422V12.8125C1.95312 13.3203 1.52344 13.75 1.01562 13.75C0.507812 13.75 0.078125 13.3203 0.078125 12.8125V10.7422C0.078125 9.80469 0.429688 8.94531 1.09375 8.28125L2.30469 7.07031C3.24219 6.13281 4.49219 5.625 5.82031 5.625C7.1875 5.625 8.55469 6.21094 9.49219 7.26562L10.3516 8.24219C10.6641 8.55469 11.0547 8.75 11.5234 8.75H12.8906C13.3984 8.75 13.8281 9.17969 13.8281 9.6875C13.8281 10.1953 13.3984 10.625 12.8906 10.625H11.5234C10.5469 10.625 9.60938 10.1953 8.94531 9.49219L8.51562 8.98438V14.9219L9.33594 15.4688C10.1562 16.0156 10.7031 16.875 10.8594 17.8516L11.3281 21.4453C11.4062 21.9531 11.0547 22.4219 10.5078 22.5C10 22.5781 9.53125 22.1875 9.45312 21.6797L8.98438 18.125C8.94531 17.6562 8.67188 17.2656 8.32031 17.0312L4.72656 14.6484C3.78906 14.0234 3.20312 12.9297 3.20312 11.7969V8.82812L2.42188 9.60938ZM3.75 17.2266L3.98438 16.4062L5.625 17.5L5.54688 17.7734C5.39062 18.3203 5.07812 18.8281 4.64844 19.2578L1.67969 22.2266C1.32812 22.5781 0.703125 22.5781 0.351562 22.2266C0 21.875 0 21.25 0.351562 20.8984L3.32031 17.9297C3.51562 17.7344 3.67188 17.5 3.75 17.2266Z" fill="#626262"/>
</svg>
