<svg width="24" height="17" viewBox="0 0 24 17" fill="none" xmlns="http://www.w3.org/2000/svg">
<path d="M22.9883 2.57812C23.4609 4.42578 23.4609 8.25 23.4609 8.25C23.4609 8.25 23.4609 12.1172 22.9883 13.9648C22.7305 14.9531 21.9141 15.7266 20.9258 16.0273C19.0781 16.5 11.7305 16.5 11.7305 16.5C11.7305 16.5 4.38281 16.5 2.57812 16.0273C1.54688 15.7266 0.773438 14.9531 0.472656 13.9648C0 12.1172 0 8.25 0 8.25C0 8.25 0 4.42578 0.472656 2.57812C0.773438 1.54688 1.54688 0.773438 2.57812 0.515625C4.38281 0 11.7305 0 11.7305 0C11.7305 0 19.0781 0 20.8828 0.515625C21.9141 0.773438 22.7305 1.54688 22.9883 2.57812ZM9.32422 11.7734L15.4688 8.25L9.32422 4.76953V11.7734Z" fill="black"/>
</svg>
